<svg xmlns="http://www.w3.org/2000/svg" viewBox="0 0 512 512" role="img" aria-labelledby="title desc">
  <title id="title">Octarq Logo Tech</title>
  <desc id="desc">Tech-styled friendly octopus logo for Octarq.</desc>
  <defs>
    <linearGradient id="head" x1="0" y1="0" x2="1" y2="1">
      <stop offset="0%" stop-color="#22d3ee"/>
      <stop offset="100%" stop-color="#0ea5e9"/>
    </linearGradient>
    <linearGradient id="line" x1="0" y1="0" x2="1" y2="0">
      <stop offset="0%" stop-color="#67e8f9"/>
      <stop offset="100%" stop-color="#2dd4bf"/>
    </linearGradient>
  </defs>

  <circle cx="256" cy="186" r="112" fill="url(#head)"/>

  <ellipse cx="216" cy="174" rx="22" ry="26" fill="#ecfeff"/>
  <ellipse cx="296" cy="174" rx="22" ry="26" fill="#ecfeff"/>
  <circle cx="216" cy="181" r="8" fill="#082f49"/>
  <circle cx="296" cy="181" r="8" fill="#082f49"/>

  <path d="M218 236c10 9 22 13 38 13s28-4 38-13" fill="none" stroke="#cffafe" stroke-width="9" stroke-linecap="round"/>

  <path d="M144 290c-18 20-20 42-8 60" fill="none" stroke="url(#line)" stroke-width="16" stroke-linecap="round"/>
  <path d="M194 306c-12 16-11 33 1 47" fill="none" stroke="url(#line)" stroke-width="16" stroke-linecap="round"/>
  <path d="M256 314c-8 13-8 28 0 40" fill="none" stroke="url(#line)" stroke-width="16" stroke-linecap="round"/>
  <path d="M318 306c12 16 11 33-1 47" fill="none" stroke="url(#line)" stroke-width="16" stroke-linecap="round"/>
  <path d="M368 290c18 20 20 42 8 60" fill="none" stroke="url(#line)" stroke-width="16" stroke-linecap="round"/>

  <path d="M98 132h46M368 116h34M106 378h30M378 366h40" stroke="#22d3ee" stroke-width="4" stroke-linecap="round" opacity="0.7"/>
  <circle cx="116" cy="122" r="5" fill="#67e8f9"/>
  <circle cx="414" cy="354" r="5" fill="#67e8f9"/>
</svg>
